<svg width="1200" height="254" viewBox="0 0 1200 254" fill="none" xmlns="http://www.w3.org/2000/svg">
  <path d="M666.986 139.63C402.024 106.723 141.913 110.364 10.766 193.154C3.89298 197.493 0 205.169 0 213.297V229C0 242.807 11.1929 254 25 254H1175C1188.81 254 1200 242.807 1200 229V27.0786C1200 3.25193 1168.16 -8.4334 1150.72 7.79938C1060.61 91.6592 906.138 169.332 666.986 139.63Z" fill="white" fill-opacity="0.1"/>
  <path d="M676 168C403.579 148.264 182 142 0 239V254H1200V79C1122.97 136.991 966.431 189.041 676 168Z" fill="white" fill-opacity="0.1"/>
  <path d="M60 172.421L260 85L205 196.388L159.831 189.906L120.593 234L132.712 182.656L249.237 93.9554L240.678 97.2816L112.797 179.927L60 172.421Z" fill="white" fill-opacity="0.3"/>
</svg>
