<?xml version="1.0" encoding="utf-8"?>
<!-- Generator: Adobe Illustrator 25.0.1, SVG Export Plug-In . SVG Version: 6.00 Build 0)  -->
<svg version="1.1" id="Layer_1" xmlns="http://www.w3.org/2000/svg" xmlns:xlink="http://www.w3.org/1999/xlink" x="0px" y="0px"
	 width="24px" height="20px" viewBox="0 0 24 20" style="enable-background:new 0 0 24 20;" xml:space="preserve">
<style type="text/css">
	.st0{fill-rule:evenodd;clip-rule:evenodd;fill:#F05A22;}
</style>
<path class="st0" d="M20.4,0.6H3.6C1.8,0.6,0.5,2,0.5,3.8v12.6c0,1.8,1.4,3.2,3.2,3.2h16.8c1.8,0,3.2-1.4,3.2-3.2V3.8
	C23.5,1.9,22.2,0.6,20.4,0.6z M5,6.7C4.5,6.5,4.4,6,4.7,5.6L5,5.2C5.1,4.8,5.7,4.7,6,5l5.9,3.5L18,4.8c0.4-0.3,0.9-0.1,1.2,0.3
	l0.3,0.3c0.3,0.4,0.1,0.9-0.3,1.2L12,10.9l0,0L5,6.7z"/>
</svg>
