<svg width="23" height="18" viewBox="0 0 23 18" fill="none" xmlns="http://www.w3.org/2000/svg">
  <path fill-rule="evenodd" clip-rule="evenodd" d="M19.7321 0H3.8253C2.18298 0 0.852715 1.34735 0.852715 3L0.842773 14.9992C0.842773 16.6523 2.18264 18 3.8253 18H19.7321C21.3748 18 22.7146 16.6523 22.7146 15V3C22.7146 1.34772 21.3748 0 19.7321 0ZM2.84106 3.00083C2.84106 2.44883 3.2842 2 3.8253 2H19.7321C20.2766 2 20.7263 2.45228 20.7263 3V15C20.7263 15.5477 20.2766 16 19.7321 16H3.8253C3.28077 16 2.83112 15.5477 2.83112 15L2.84106 3.00083ZM5.29863 5.99889C4.82878 5.71413 4.67727 5.10327 4.9596 4.63195C5.244 4.15718 5.86031 4.00431 6.33361 4.29116L11.7496 7.57353L17.4009 4.14851C17.8749 3.86122 18.4922 4.01435 18.7771 4.48987C19.0592 4.96085 18.9089 5.57124 18.4403 5.8573L11.7886 9.91801L11.7824 9.9284L5.29863 5.99889Z" fill="#AAAAAA" fill-opacity="0.8"/>
</svg>
