<?xml version="1.0" encoding="utf-8"?>
<!-- Generator: Adobe Illustrator 25.0.1, SVG Export Plug-In . SVG Version: 6.00 Build 0)  -->
<svg version="1.1" id="Layer_1" xmlns="http://www.w3.org/2000/svg" xmlns:xlink="http://www.w3.org/1999/xlink" x="0px" y="0px"
	 width="16.5px" height="20px" viewBox="0 0 16.5 20" style="enable-background:new 0 0 16.5 20;" xml:space="preserve">
<style type="text/css">
	.st0{fill:#F05A22;}
</style>
<path class="st0" d="M16.1,5.1v3.2c-1.6,0-3.1-0.6-4.2-1.5v6.6c0,3.4-2.6,6-5.7,6c-1.1,0-2.2-0.3-3.1-1l0,0c-1.6-1.1-2.6-2.9-2.6-5
	c0-3.4,2.6-6,5.7-6c0.2,0,0.6,0,0.8,0.1v0.8v2.6c-0.2-0.1-0.6-0.1-0.8-0.1c-1.5,0-2.6,1.2-2.6,2.8c0,1.1,0.6,2,1.5,2.5
	c0.3,0.2,0.8,0.3,1.1,0.3c1.5,0,2.6-1.2,2.6-2.8V0.5h3.1v0.4c0,0.1,0,0.2,0,0.3c0.2,1.3,0.9,2.3,2,3C14.5,4.9,15.3,5.1,16.1,5.1z"/>
</svg>
