<?xml version="1.0" encoding="utf-8"?>
<!-- Generator: Adobe Illustrator 25.0.1, SVG Export Plug-In . SVG Version: 6.00 Build 0)  -->
<svg version="1.1" id="Layer_1" xmlns="http://www.w3.org/2000/svg" xmlns:xlink="http://www.w3.org/1999/xlink" x="0px" y="0px"
	 width="20px" height="20px" viewBox="0 0 20 20" style="enable-background:new 0 0 20 20;" xml:space="preserve">
<style type="text/css">
	.st0{fill:#F05A22;}
</style>
<path class="st0" d="M19.2,6c0-1-0.2-1.7-0.4-2.2C18.6,3,18.2,2.5,17.7,2c-0.4-0.4-1-0.9-1.7-1.1c-0.6-0.2-1.2-0.3-2.2-0.4
	c-0.9,0-1.2,0-3.8,0S7,0.4,6,0.4S4.3,0.7,3.7,0.9C3,1.2,2.5,1.6,2,2S1.2,3,0.9,3.7C0.7,4.3,0.6,4.9,0.5,6c0,1,0,1.3,0,3.9
	s0,2.9,0,3.9s0.2,1.7,0.4,2.2c0.2,0.7,0.6,1.2,1.1,1.7c0.4,0.4,1,0.9,1.7,1.1C4.3,19.1,5,19.2,6,19.3c1,0,1.3,0.1,3.9,0.1
	s2.9,0,3.9-0.1c1,0,1.7-0.2,2.2-0.4c1.2-0.4,2.2-1.5,2.8-2.8c0.2-0.6,0.3-1.2,0.4-2.2c0-1,0-1.3,0-3.9S19.3,7,19.2,6z M17.5,13.7
	c0,0.9-0.2,1.5-0.3,1.8c-0.3,0.8-1,1.5-1.8,1.8c-0.3,0.1-0.8,0.2-1.8,0.3c-1,0-1.3,0-3.8,0s-2.8,0-3.8,0c-0.9,0-1.5-0.2-1.8-0.3
	C3.7,17.2,3.4,17,3,16.6c-0.3-0.3-0.6-0.7-0.7-1.1c-0.1-0.3-0.2-0.8-0.3-1.8c0-1,0-1.3,0-3.8s0-2.8,0-3.8c0-0.9,0.2-1.5,0.3-1.8
	C2.5,3.8,2.8,3.5,3,3.1c0.3-0.3,0.7-0.6,1.1-0.7c0.4-0.1,1-0.2,1.9-0.3c1,0,1.3,0,3.8,0s2.8,0,3.8,0c0.9,0,1.5,0.2,1.8,0.3
	c0.4,0.1,0.8,0.3,1.1,0.7s0.6,0.7,0.7,1.1c0,0.3,0.2,0.9,0.2,1.8c0,1,0.1,1.3,0.1,3.8S17.5,12.7,17.5,13.7z M9.9,5.1
	c-2.7,0-4.8,2.1-4.8,4.8s2.1,4.8,4.8,4.8s4.8-2.1,4.8-4.8S12.6,5.1,9.9,5.1z M9.9,13c-1.7,0-3.1-1.5-3.1-3.1s1.3-3.1,3.1-3.1
	S13,8.1,13,9.9S11.6,13,9.9,13z M16.1,4.8C16.1,5.5,15.5,6,15,6s-1.1-0.6-1.1-1.1s0.6-1.1,1.1-1.1S16.1,4.2,16.1,4.8z"/>
</svg>
