<?xml version="1.0" encoding="utf-8"?>
<!-- Generator: Adobe Illustrator 25.0.1, SVG Export Plug-In . SVG Version: 6.00 Build 0)  -->
<svg version="1.1" id="Layer_1" xmlns="http://www.w3.org/2000/svg" xmlns:xlink="http://www.w3.org/1999/xlink" x="0px" y="0px"
	 width="29px" height="20px" viewBox="0 0 29 20" style="enable-background:new 0 0 29 20;" xml:space="preserve">
<style type="text/css">
	.st0{fill:#F05A22;}
</style>
<path class="st0" d="M27.4,3.1C27.1,1.9,26.2,1,25,0.7c-2.2-0.6-10.6-0.6-10.6-0.6S6.1,0.2,4,0.8C2.8,1.1,1.9,2,1.6,3.1
	C1.1,5.3,1.1,9.7,1.1,9.7s0,4.4,0.6,6.6c0.3,1.1,1.1,2,2.3,2.3c2.1,0.6,10.5,0.6,10.5,0.6s8.4,0,10.5-0.6c1.2-0.3,2.1-1.3,2.4-2.4
	C28,14,28,9.6,28,9.6S27.9,5.3,27.4,3.1z M11.8,13.7v-8l7.1,4L11.8,13.7z"/>
</svg>
